# Blender v2.76 (sub 0) OBJ File: 'TrafficCone.blend'
# www.blender.org
mtllib TrafficCone.mtl
o Cone_Cone.001
v 0.000000 0.980686 -0.181602
v 0.000000 1.226445 -0.127291
v 0.110237 1.226445 -0.063646
v 0.157272 0.980686 -0.090801
v 0.000000 0.734927 -0.235913
v 0.204307 0.734927 -0.117957
v -0.157272 0.980686 -0.090801
v -0.110237 1.226445 -0.063646
v -0.000000 1.226445 -0.101636
v 0.088020 1.226445 -0.050818
v 0.110237 1.226445 0.063646
v 0.157272 0.980686 0.090801
v 0.000000 0.489168 -0.290224
v 0.251341 0.489168 -0.145112
v -0.204307 0.734927 -0.117957
v 0.204307 0.734927 0.117957
v -0.157272 0.980686 0.090801
v -0.110237 1.226445 0.063646
v -0.088020 1.226445 -0.050818
v 0.088020 1.226445 0.050818
v 0.000000 0.045745 -0.348122
v 0.301482 0.045745 -0.174061
v -0.000000 1.226445 0.127291
v -0.000000 0.980686 0.181602
v 0.000000 0.243409 -0.344535
v 0.298376 0.243409 -0.172267
v -0.251341 0.489168 -0.145112
v 0.251341 0.489168 0.145112
v -0.204307 0.734927 0.117957
v -0.000000 0.734927 0.235913
v -0.088020 1.226445 0.050818
v -0.301482 0.045745 -0.174061
v -0.000000 1.226445 0.101636
v 0.301482 0.045745 0.174061
v -0.301482 0.045745 0.174061
v -0.000000 0.045745 0.348122
v 0.000000 0.032383 -0.391170
v 0.338763 0.032383 -0.195585
v -0.298376 0.243409 -0.172267
v 0.298376 0.243409 0.172267
v -0.251341 0.489168 0.145112
v -0.000000 0.489168 0.290224
v -0.338763 0.032383 -0.195585
v 0.338763 0.032383 0.195585
v -0.298376 0.243409 0.172267
v -0.000000 0.243409 0.344535
v -0.338763 0.032383 0.195585
v -0.000000 0.032383 0.391170
v -0.465726 -0.035752 0.465726
v -0.465726 -0.035752 -0.465726
v 0.465726 -0.035752 -0.465726
v 0.465726 -0.035752 0.465726
v 0.465726 -0.001685 0.499794
v -0.465726 -0.001685 0.499794
v -0.499794 -0.001685 0.465726
v -0.499794 -0.001685 -0.465726
v -0.465726 -0.001685 -0.499794
v 0.465726 -0.001685 -0.499794
v 0.499794 -0.001685 -0.465726
v 0.499794 -0.001685 0.465726
v 0.465726 -0.001685 0.499794
v -0.499794 -0.001685 0.465726
v -0.465726 -0.001685 -0.499794
v 0.499794 -0.001685 -0.465726
v -0.465726 -0.001685 0.499794
v -0.499794 -0.001685 -0.465726
v 0.465726 -0.001685 -0.499794
v 0.499794 -0.001685 0.465726
v 0.465726 0.032383 0.465726
v -0.465726 0.032383 0.465726
v -0.465726 0.032383 -0.465726
v 0.465726 0.032383 -0.465726
vn 0.491100 0.188000 -0.850600
vn -0.491100 0.188000 -0.850600
vn 0.000000 1.000000 0.000000
vn 0.982200 0.188000 0.000000
vn -0.982200 0.188000 0.000000
vn -0.492000 -0.177900 0.852200
vn 0.491100 0.188000 0.850600
vn -0.491100 0.188000 0.850600
vn 0.492000 -0.177900 0.852200
vn -0.984000 -0.177900 -0.000000
vn 0.984000 -0.177900 0.000000
vn -0.492000 -0.177900 -0.852200
vn 0.492000 -0.177900 -0.852200
vn 0.000000 -1.000000 0.000000
vn 0.000000 -0.707100 0.707100
vn -0.707100 -0.707100 0.000000
vn 0.000000 -0.707100 -0.707100
vn 0.707100 -0.707100 0.000000
vn -0.577400 -0.577400 0.577300
vn 0.577400 -0.577400 0.577300
vn 0.000000 0.000000 1.000000
vn -0.577400 -0.577400 -0.577300
vn 0.577400 -0.577400 -0.577300
vn 0.000000 0.707100 0.707100
vn -0.707100 0.707100 0.000000
vn 0.000000 0.707100 -0.707100
vn 0.707100 0.707100 0.000000
vn -0.577400 0.577400 0.577300
vn 0.577400 0.577400 0.577300
vn -0.577400 0.577400 -0.577300
vn 0.577400 0.577400 -0.577300
usemtl Orange
s off
f 1//1 2//1 3//1 4//1
f 7//2 8//2 2//2 1//2
f 3//3 2//3 9//3 10//3
f 4//4 3//4 11//4 12//4
f 13//1 5//1 6//1 14//1
f 17//5 18//5 8//5 7//5
f 2//3 8//3 19//3 9//3
f 11//3 3//3 10//3 20//3
f 10//6 9//6 21//6 22//6
f 12//7 11//7 23//7 24//7
f 27//2 15//2 5//2 13//2
f 14//4 6//4 16//4 28//4
f 24//8 23//8 18//8 17//8
f 8//3 18//3 31//3 19//3
f 9//9 19//9 32//9 21//9
f 23//3 11//3 20//3 33//3
f 20//10 10//10 22//10 34//10
f 22//3 21//3 32//3 35//3 36//3 34//3
f 37//1 25//1 26//1 38//1
f 41//5 29//5 15//5 27//5
f 28//7 16//7 30//7 42//7
f 18//3 23//3 33//3 31//3
f 19//11 31//11 35//11 32//11
f 33//12 20//12 34//12 36//12
f 31//13 33//13 36//13 35//13
f 43//2 39//2 25//2 37//2
f 38//4 26//4 40//4 44//4
f 42//8 30//8 29//8 41//8
f 47//5 45//5 39//5 43//5
f 44//7 40//7 46//7 48//7
f 48//8 46//8 45//8 47//8
f 49//14 50//14 51//14 52//14
f 49//15 52//15 53//15 54//15
f 50//16 49//16 55//16 56//16
f 51//17 50//17 57//17 58//17
f 52//18 51//18 59//18 60//18
f 54//19 55//19 49//19
f 53//20 52//20 60//20
f 53//21 61//21 65//21 54//21
f 57//22 50//22 56//22
f 55//21 62//21 66//21 56//21
f 59//23 51//23 58//23
f 57//21 63//21 67//21 58//21
f 59//21 64//21 68//21 60//21
f 55//21 54//21 65//21 62//21
f 53//21 60//21 68//21 61//21
f 57//21 56//21 66//21 63//21
f 59//21 58//21 67//21 64//21
f 69//24 70//24 65//24 61//24
f 70//25 71//25 66//25 62//25
f 71//26 72//26 67//26 63//26
f 72//27 69//27 68//27 64//27
f 65//28 70//28 62//28
f 69//29 61//29 68//29
f 70//3 48//3 47//3 43//3 37//3 72//3 71//3
f 70//3 69//3 72//3 37//3 38//3 44//3 48//3
f 71//30 63//30 66//30
f 72//31 64//31 67//31
usemtl White
f 5//1 1//1 4//1 6//1
f 15//2 7//2 1//2 5//2
f 6//4 4//4 12//4 16//4
f 25//1 13//1 14//1 26//1
f 29//5 17//5 7//5 15//5
f 16//7 12//7 24//7 30//7
f 39//2 27//2 13//2 25//2
f 26//4 14//4 28//4 40//4
f 30//8 24//8 17//8 29//8
f 45//5 41//5 27//5 39//5
f 40//7 28//7 42//7 46//7
f 46//8 42//8 41//8 45//8
