# Blender v2.76 (sub 0) OBJ File: 'TrafficSign2.blend'
# www.blender.org
mtllib TrafficSign2.mtl
o TrafficSign_Cylinder
v -0.229536 1.112955 0.046614
v -0.229536 1.112955 0.046614
v -0.015047 1.484460 0.046614
v -0.015047 1.484460 0.046614
v -0.214489 1.086892 0.046614
v -0.205137 1.109666 0.078690
v 0.000000 1.464974 0.078690
v 0.000000 1.464974 0.014537
v -0.205137 1.109666 0.014537
v 0.015047 1.484460 0.046614
v -0.214489 1.086892 0.046614
v -0.177303 1.125736 0.078690
v 0.000000 1.432834 0.078690
v 0.015047 1.484460 0.046614
v 0.205137 1.109666 0.014537
v 0.027187 1.109666 0.014537
v 0.027187 1.281219 0.014537
v -0.027642 1.281219 0.014537
v -0.027642 1.109666 0.014537
v 0.214489 1.086892 0.046614
v -0.016239 1.100018 0.028127
v 0.005640 1.097279 0.031984
v 0.024879 1.105166 0.020876
v 0.229536 1.112954 0.046614
v 0.205137 1.109666 0.078690
v 0.214489 1.086892 0.046614
v 0.177303 1.125736 0.078690
v -0.177303 1.125736 0.092997
v 0.000000 1.432834 0.092997
v 0.229536 1.112954 0.046614
v 0.177303 1.125736 0.092997
v 0.032478 -0.001028 0.000000
v 0.032478 1.281219 0.000000
v 0.024879 -0.001028 0.020876
v 0.005640 -0.001028 0.031984
v -0.016239 -0.001028 0.028127
v -0.030519 -0.001028 0.011108
v -0.030519 -0.001028 -0.011108
v -0.016239 -0.001028 -0.028127
v 0.005640 -0.001028 -0.031984
v 0.024879 -0.001028 -0.020876
v 0.024879 1.281219 -0.020876
v 0.005640 1.281219 -0.031984
v -0.016239 1.281219 -0.028127
v -0.030519 1.281219 -0.011108
v -0.030519 1.281219 0.011108
vn 0.000000 0.000000 1.000000
vn -0.706100 0.407700 0.578900
vn -0.706100 0.407700 -0.578900
vn -0.740200 -0.427300 -0.519200
vn 0.000000 0.854700 0.519200
vn -0.740200 -0.427300 0.519200
vn 0.000000 0.854700 -0.519200
vn 0.000000 0.000000 -1.000000
vn -0.000000 -0.815400 -0.578900
vn 0.706100 0.407700 0.578900
vn -0.000000 -0.815400 0.578900
vn 0.706100 0.407700 -0.578900
vn 0.740200 -0.427300 -0.519200
vn 0.740200 -0.427300 0.519200
vn -0.866000 0.500000 0.000000
vn 0.866000 0.500000 0.000000
vn 0.000000 -1.000000 0.000000
vn 0.939700 -0.000000 0.342000
vn 0.939700 -0.000000 -0.342000
vn 0.000000 1.000000 -0.000000
vn 0.500000 0.000000 0.866000
vn -0.173600 0.000000 0.984800
vn -0.766000 0.000000 0.642800
vn -1.000000 -0.000000 -0.000000
vn -0.766000 -0.000000 -0.642800
vn -0.173600 -0.000000 -0.984800
vn 0.500000 -0.000000 -0.866000
usemtl Border
s off
f 2//1 3//1 4//1 1//1
f 1//1 5//1 11//1 2//1
f 3//2 2//2 6//2 7//2
f 1//3 4//3 8//3 9//3
f 3//1 10//1 14//1 4//1
f 9//4 5//4 1//4
f 7//5 10//5 3//5
f 6//6 2//6 11//6
f 7//1 6//1 12//1 13//1
f 8//7 4//7 14//7
f 8//8 15//8 16//8 17//8 18//8 19//8 9//8
f 5//1 20//1 26//1 11//1
f 20//9 5//9 9//9 19//9 21//9 22//9 23//9 16//9 15//9
f 24//10 10//10 7//10 25//10
f 11//11 26//11 25//11 6//11
f 25//1 7//1 13//1 27//1
f 6//1 25//1 27//1 12//1
f 14//12 30//12 15//12 8//12
f 14//1 10//1 24//1 30//1
f 15//13 30//13 20//13
f 25//14 26//14 24//14
f 24//1 26//1 20//1 30//1
usemtl Sign
f 13//15 12//15 28//15 29//15
f 27//16 13//16 29//16 31//16
f 12//17 27//17 31//17 28//17
f 31//1 29//1 28//1
usemtl Pole
f 32//18 33//18 17//18 16//18 23//18 34//18
f 32//17 34//17 35//17 36//17 37//17 38//17 39//17 40//17 41//17
f 41//19 42//19 33//19 32//19
f 17//20 33//20 42//20 43//20 44//20 45//20 46//20 18//20
f 22//21 35//21 34//21 23//21
f 21//22 36//22 35//22 22//22
f 36//23 21//23 19//23 18//23 46//23 37//23
f 37//24 46//24 45//24 38//24
f 38//25 45//25 44//25 39//25
f 39//26 44//26 43//26 40//26
f 40//27 43//27 42//27 41//27
